<svg width="38" height="38" viewBox="0 0 38 38" fill="none" xmlns="http://www.w3.org/2000/svg">
<path d="M37 21.1541V16.7791L31.6439 15.928C31.3265 14.695 30.829 13.536 30.1728 12.4741L33.2943 8.1492L30.1114 5.05727L25.7192 8.12693C24.6244 7.48261 23.4241 6.99102 22.1469 6.68159L21.2141 1.5H16.7139L15.8466 6.66409C14.5685 6.96875 13.3617 7.45398 12.2636 8.09511L7.88449 5.0533L4.70244 8.14523L7.78304 12.428C7.11701 13.4994 6.61053 14.6711 6.28897 15.9216L1 16.7775V21.1525L6.28324 22.0633C6.60235 23.3106 7.10882 24.4823 7.77731 25.5561L4.65498 29.8015L7.8354 32.8966L12.2464 29.893C13.3477 30.5357 14.5513 31.0249 15.8294 31.3311L16.7139 36.5H21.2141L22.16 31.3192C23.4315 31.0058 24.6326 30.5134 25.7233 29.8683L30.1646 32.8982L33.3458 29.8031L30.1752 25.5235C30.8314 24.4616 31.3297 23.301 31.6439 22.0681L37 21.1541Z" stroke="#949494" stroke-width="2" stroke-miterlimit="10" stroke-linecap="round" stroke-linejoin="round"/>
<path d="M19 11.5C17.0109 11.5 15.1032 12.2902 13.6967 13.6967C12.2902 15.1032 11.5 17.0109 11.5 19C11.5 20.9891 12.2902 22.8968 13.6967 24.3033C15.1032 25.7098 17.0109 26.5 19 26.5C20.9891 26.5 22.8968 25.7098 24.3033 24.3033C25.7098 22.8968 26.5 20.9891 26.5 19C26.5 17.0109 25.7098 15.1032 24.3033 13.6967C22.8968 12.2902 20.9891 11.5 19 11.5Z" stroke="#949494" stroke-width="2" stroke-miterlimit="10" stroke-linecap="round" stroke-linejoin="round"/>
</svg>
