<svg width="20" height="20" viewBox="0 0 20 20" fill="#fff" xmlns="http://www.w3.org/2000/svg">
  <g clip-path="url(#clip0)">
    <path fill-rule="evenodd" clip-rule="evenodd"
          d="M2.51402 18.4283L3.23402 5.03169L16.8959 5.03785L17.6103 18.424L2.51402 18.4283ZM10.0623 1.576C11.1709 1.576 12.0968 2.37908 12.35 3.456H7.77464C8.02818 2.37908 8.95402 1.576 10.0623 1.576ZM18.4045 4.94985C18.3593 4.112 17.7122 3.45569 16.9313 3.45569H13.8897C13.6165 1.50462 12.0066 0 10.0623 0C8.11772 0 6.50849 1.50462 6.23556 3.45569H3.19402C2.41249 3.45569 1.76633 4.112 1.72079 4.95046L1.00233 18.4175C0.991217 18.6166 1.01992 18.8159 1.08675 19.0037C1.15358 19.1915 1.25721 19.3641 1.39156 19.5114C1.6731 19.8215 2.06849 20 2.47495 20H17.6503C18.0562 20 18.4503 19.8215 18.7322 19.5105C18.8667 19.3635 18.9705 19.1912 19.0376 19.0037C19.1047 18.8161 19.1337 18.6171 19.1229 18.4182L18.4045 4.94985Z"
          fill=""></path>
  </g>
  <defs>
    <clipPath id="clip0">
      <rect width="20" height="20" fill="none"></rect>
    </clipPath>
  </defs>
</svg>
